<?xml version="1.0" encoding="iso-8859-1"?>
<!-- Generator: Adobe Illustrator 16.0.0, SVG Export Plug-In . SVG Version: 6.00 Build 0)  -->
<!DOCTYPE svg PUBLIC "-//W3C//DTD SVG 1.1//EN" "http://www.w3.org/Graphics/SVG/1.1/DTD/svg11.dtd">
<svg xmlns="http://www.w3.org/2000/svg" xmlns:xlink="http://www.w3.org/1999/xlink" version="1.1" id="Capa_1" x="0px" y="0px" width="512px" height="512px" viewBox="0 0 45.668 45.668" style="enable-background:new 0 0 45.668 45.668;" xml:space="preserve">
<g>
	<g>
		<path d="M44.167,24.798c-0.829,0-1.5,0.67-1.5,1.5v0.076H42V14.497c0-1.657-1.343-3-3-3H6.667c-1.657,0-3,1.343-3,3v11.877H3    v-0.076c0-0.83-0.671-1.5-1.5-1.5s-1.5,0.67-1.5,1.5v1.576c0,0.83,0.671,1.5,1.5,1.5h2.583c0.428,0.736,1.156,1.271,2.017,1.439    c0.417,1.918,2.124,3.357,4.165,3.357c1.069,0,2.035-0.407,2.784-1.062c0.75,0.651,1.716,1.062,2.785,1.062    c2.018,0,3.705-1.412,4.144-3.299h5.711c0.438,1.887,2.125,3.299,4.145,3.299c1.068,0,2.035-0.407,2.785-1.062    c0.749,0.651,1.716,1.062,2.785,1.062c2.041,0,3.746-1.439,4.164-3.357c0.858-0.168,1.588-0.703,2.017-1.439h2.583    c0.829,0,1.5-0.67,1.5-1.5v-1.576C45.667,25.47,44.996,24.798,44.167,24.798z M10.265,31.175c-0.698,0-1.266-0.565-1.266-1.264    s0.568-1.266,1.266-1.266c0.697,0,1.264,0.564,1.264,1.266C11.529,30.608,10.962,31.175,10.265,31.175z M15.834,31.175    c-0.698,0-1.266-0.565-1.266-1.264s0.568-1.266,1.266-1.266c0.697,0,1.264,0.564,1.264,1.266    C17.098,30.608,16.532,31.175,15.834,31.175z M25.118,19.904H7.992c-0.552,0-1-0.448-1-1c0-0.552,0.448-1,1-1h17.126    c0.552,0,1,0.448,1,1C26.118,19.457,25.67,19.904,25.118,19.904z M25.118,16.708H7.992c-0.552,0-1-0.448-1-1c0-0.552,0.448-1,1-1    h17.126c0.552,0,1,0.448,1,1C26.118,16.259,25.67,16.708,25.118,16.708z M29.834,31.175c-0.698,0-1.266-0.565-1.266-1.264    s0.565-1.266,1.266-1.266c0.697,0,1.266,0.564,1.266,1.266C31.1,30.608,30.532,31.175,29.834,31.175z M35.404,31.175    c-0.698,0-1.267-0.565-1.267-1.264s0.566-1.266,1.267-1.266c0.696,0,1.265,0.564,1.265,1.266    C36.669,30.608,36.102,31.175,35.404,31.175z M35.964,26.298H29.57c-0.554,0-1-0.447-1-1s0.446-1,1-1h6.394c0.552,0,1,0.447,1,1    S36.518,26.298,35.964,26.298z M35.964,23.102H29.57c-0.554,0-1-0.448-1-1c0-0.552,0.446-1,1-1h6.394c0.552,0,1,0.448,1,1    C36.964,22.653,36.518,23.102,35.964,23.102z M35.964,19.904H29.57c-0.554,0-1-0.448-1-1c0-0.552,0.446-1,1-1h6.394    c0.552,0,1,0.448,1,1C36.964,19.457,36.518,19.904,35.964,19.904z M35.964,16.708H29.57c-0.554,0-1-0.448-1-1c0-0.552,0.446-1,1-1    h6.394c0.552,0,1,0.448,1,1C36.964,16.259,36.518,16.708,35.964,16.708z" fill="#c78632"/>
	</g>
</g>
<g>
</g>
<g>
</g>
<g>
</g>
<g>
</g>
<g>
</g>
<g>
</g>
<g>
</g>
<g>
</g>
<g>
</g>
<g>
</g>
<g>
</g>
<g>
</g>
<g>
</g>
<g>
</g>
<g>
</g>
</svg>
