<?xml version="1.0" encoding="iso-8859-1"?>
<!DOCTYPE svg PUBLIC "-//W3C//DTD SVG 1.1//EN" "http://www.w3.org/Graphics/SVG/1.1/DTD/svg11.dtd">
<svg xmlns="http://www.w3.org/2000/svg" xmlns:xlink="http://www.w3.org/1999/xlink" version="1.1" viewBox="0 0 512 512" enable-background="new 0 0 512 512" width="512px" height="512px">
  <g>
    <path d="m224,112c8.836,0 16-7.164 16-16v-32c0-8.836-7.164-16-16-16s-16,7.164-16,16v32c0,8.836 7.164,16 16,16z" fill="#D80027"/>
    <path d="m288,128c4.094,0 8.188-1.563 11.313-4.688l16-16c6.25-6.25 6.25-16.375 0-22.625s-16.375-6.25-22.625,0l-16,16c-6.25,6.25-6.25,16.375 0,22.625 3.125,3.126 7.218,4.688 11.312,4.688z" fill="#D80027"/>
    <path d="m148.688,123.313c3.125,3.125 7.218,4.687 11.312,4.687 4.094,0 8.188-1.563 11.313-4.688 6.25-6.25 6.25-16.375 0-22.625l-16-16c-6.25-6.25-16.375-6.25-22.625,0s-6.25,16.375 0,22.625l16,16.001z" fill="#D80027"/>
    <path d="m384,368c-26.513,0-48,21.487-48,48 0,26.512 21.487,48 48,48s48-21.488 48-48c0-26.513-21.487-48-48-48z" fill="#D80027"/>
    <path d="m432,272h-31.438l-59.25-88.875c-2.968-4.453-7.96-7.125-13.312-7.125h-42.272c-7.156-27.524-31.995-48-61.728-48s-54.571,20.476-61.727,48h-50.273c-5.688,0-10.953,3.023-13.82,7.938l-51.367,88.062h-30.813c-8.836,0-16,7.164-16,16v128c0,8.836 7.164,16 16,16h33.612c-1.049-5.171-1.612-10.52-1.612-16 0-44.188 35.813-80 80-80s80,35.813 80,80c0,5.48-0.563,10.829-1.612,16h99.225c-1.05-5.171-1.612-10.52-1.612-16 0-44.188 35.813-80 80-80s80,35.813 80,80c0,5.48-0.563,10.829-1.612,16h33.611c8.836,0 16-7.164 16-16v-64c0-44.109-35.891-80-80-80zm-336,0l32-64h80v64h-112zm144,0v-64h80l32,64h-112z" fill="#D80027"/>
    <path d="m128,368c-26.513,0-48,21.487-48,48 0,26.512 21.487,48 48,48s48-21.488 48-48c0-26.513-21.487-48-48-48z" fill="#D80027"/>
  </g>
</svg>
